<svg xmlns="http://www.w3.org/2000/svg" height="24" viewBox="0 0 250 239.4" width="24" >
                <path d="m133.2 0.7c-0.1 0.1-0.7 0.3-0.7 0.5-0.2 0.7 0.2 1.2 0.3 1.7-0.3 0.1-0.4 0.5-0.5 0.5-0.9 0.3-2.1-0.2-3 0-0.5 0.1-1.2 1.1-1.7 1.2-1.2 0.2-1.8-0.5-2.7 0.2-0.5 0.4-1.5 3.5-1.7 4.2-0.3-0.1-0.5 0.1-0.7 0-0.3-0.1-0.6-0.9-1-1-2.3-0.9-2.2 1-3.2 1.7-0.4 0.3-1 0.3-1.5 0.5 0 0-0.2-0.7-0.2-1 0.3-0.3 1.1-0.6 1.3-1 0.1-0.3-0.1-0.7 0-1-0.2-0.2-0.4-0.1-0.5-0.5-0.5 0-1 0.1-1.5 0-0.2 0.3-0.9 0.8-1 1.2 0 0.2 0.1 0.6 0 0.7-0.2 0.3-1.2 0.5-1.2 0.7-0.4 1.1 0.3 2 0.5 2.7h-0.5c-0.4 0.1-1.1 1.4-1 2 0 0.2 0.7 0.6 0.8 0.7 0.1 0.2 0.1 0.9 0.3 1 0.2 0.2 0.6 0 0.8 0.3-0.4 0.9-0.4 1.4-0.7 2.5-0.1-0.1-0.6 0-0.7 0-0.6-1.4-0.8-0.9-0.5-3-0.2-0.1-0.8-0.7-1-0.7-0.7-0.2-1.8 0.2-2.5 0-0.2-0.1-0.4-0.9-0.7-1-0.3-0.1-1.2 0.2-1 0.3-0.3 0.5-0.7 1-1 1.7 0 0.1-0.5 0.2-0.5 0.3-0.2 0.4 0.1 1.2-0.2 1.5-0.5 0.4-1.3 0.1-1.7 0.5-0.4 0.3-1 3.9-0.5 4.2 0.8 0.5 1.2 0 1.8-0.2 0.4-0.2 0.2-0.5 0.2-1 0.2 0.1 0.8 0.3 0.8 0.3-0.1 0.7-0.2 0.9-0.2 1.7-0.3 0.1-0.4 0.5-0.5 0.5-0.7 0.3-2-0.2-2.7 0l-0.2 0.5c-0.4 0.3-0.8 0-1.2 0.3 0.3-1.3 0.4-2.1 0.7-3.2-0.5-0.2-0.1 0-0.2-0.5-1.2-0.1-2.2-0.5-3 0.5-1 1.3-0.6 2.6 0 3.7-0.5 0.6-1.4 1.3-1.5 2.2 0 0.3 0.1 1 0 1.2-0.1 0.1-1.1 0.2-1.2 0.2-0.1 0.5-0.1 1.1-0.3 1.7 0 0 0.9 0.2 1 0.2 0.3 0.2 0.2 1 0.5 1.2-0.5 0-3.3 0.2-4 0.7-0.6 0.5 0.3 3 0 4-0.2 0.5-1 1.1-1.2 1.5-1.1 1.8-2 3.2-3.2 4.7-0.2 0.3-0.9 0.5-1 1-0.8 3.1 0.7 2 1.5 2.2 0.2 0.1 1 0.8 1.2 1-0.5 1-1.6 2.5-0.7 4 0.1 0.3 0.8 0.4 1 0.7 0.2 0.4-0.4 0.2-0.2 0.8 0.2 1.5 1.9 1.5 3.2 1.5-0.1 0.1-1 0.7-1 0.7-2.4 0.7-2-0.3-3 2-1.1-1.5-1.9-1.8-4.2-2.2-0.2 0.4-0.5 0.5-0.7 0.7 0.5 1.1 0.5 1.7 1 2.7-0.4 0.3-1.2 0.6-1.5 1-0.3 0.3-0.2 1-0.5 1.2-0.3 0.2-0.7 0.1-1 0.3-0.3 0.2-0.8 0.9-1 1.2 0.1 0.2 0 0.8 0 1 1.3 0.3 1.4 0.5 3 0.2-0.1 0.3 0.1 0.5 0 0.7l-0.5 0.3c-0.5 0.8-0.3 1.3-0.5 2.5 0.2 0.1 0.9 0.4 1 0.5 0.7 1 1.1 1.8 1.7 2.7-0.5 0.3-1.8 0.9-2 1.5-0.1 0.4 0.1 0.8 0 1.2 0.7 0.2 1.8 0.4 2.5 0.7 0.1 0.1 0.5 0.7 0.7 0.7 0.4 0.1 0.8-0.1 1.2 0-0.1 0.6-0.3 1.1-0.5 2-0.6 0-0.7-0.5-1.5-0.2-0.1 0-0.5 0.6-0.7 0.7 1 1.8-0.1 1.3 2.5 1.5 0.2 0.7 0.5 1.4 0.7 2h0.3c0.2 1.1-0.3 1.4-0.2 2.5 0.1 0.9 0.9 2.7 1 3.5 0.1 0.6-0.2 1.2 0 1.7 0 0.1 0.4 0.2 0.5 0.5 2.1-0.7 0.6 0.4 2-1.2 0.3 0.1 0.5-0.1 0.8 0 0.1 0 0.6 0.7 0.7 0.7 1.1 0.2 1.2-0.5 2.2 0 1.1 0.5-0.1 1.2-0.2 1.7-0.1 0.3 0.1 0.7 0 1 1.8 1.3 2.5 2.1 5.2 2 0.1-0.3 0.3-0.9 0.5-1.2 0.2-0.3 0.8-0.3 1-0.5v2.7c0.1 0.3 1.5 2 1.8 2.5 0.7-0.1 1.3 0 2 0 0.1-0.2 0.4-1 0.5-1 2.2-0.5 2.8 1.9 4 2.2 0.7 0.2 1.1-0.1 1.7-0.2 0.3 0.3 0.4 1.1 0.8 1.2 0.3 0.1 0.7-0.1 1 0 0.1-0.3 0.5-0.4 0.5-0.5 0.1-0.4-0.1-0.8 0-1.2-0.2 0-1.3-0.1-1.7-0.2-0.4-0.2-0.6-1.4-1-1.5h-0.5c-0.1-0.3 0.1-0.7 0-1 0.2-0.3 0.6-0.7 0.7-1 0.3 0.3 1 0.3 1.3 0.7 0.1 0.2-0.1 0.7 0 1 0.1 0.4 0.8 0.7 1 1 0.5-0.1 1 0.1 1.5 0 0.9-0.2 1.1-1.2 2.3-1.2 1.4-0.1 2.6 1.2 4.5 0.7 1.3-0.3 1-2 1.7-2.5 0.9-0.6 2.1-0.1 3.2-0.5 0.3-0.1 0.7-0.6 1-0.7 0-0.2-0.1-0.8 0-1 0.1-0.3 0.6-0.2 0.8-0.5 1.2 0.4 2.7 1.2 4 0.5 0.3-0.2 0.5-1.1 0.8-1.2 0.3-0.2 0.7-0.1 1-0.2 0.2-0.1 0.7-0.9 1-1 0.6-0.3 1.2-0.3 1.8-0.5 0 0 0.3-1.2 0.3-1.5-0.1-0.4-0.9-0.7-1-1-0.2-0.7 0.3-0.6 0.3-1.2 0.4-0.3 0.5-0.6 0.8-1 1 0.1 2.1 0.4 3 0 0.5-0.3 0.4-0.8 0.8-1.2 0.5-0.6 1.6-1.1 2.2-1.5-0.1-0.8-0.4-1.6-0.2-2.2 0.1-0.6 1-1.1 1.3-1.5 0.3-0.5 0.2-0.9 0.5-1.5-0.1-0.1-0.7-0.4-0.7-0.5-0.1-0.3 0.1-0.5 0-0.7 2-1.4 2.4-2.2 0-3.5 1.5-0.8 2.8-1.6 4.2-2.2-0.1-0.3 0-0.9 0-1.2-0.3-0.1-0.7-0.7-1-0.7-1-0.3-1.6 0-2.2-0.5-0.3-0.2-0.1-0.8-0.2-1.2-0.6 0.2-0.4-0.7-0.5-1 0 0 1.4 0.1 1 0.2 1.6-0.2 4.4-0.4 3-2.5-0.1-0.2-0.9-0.3-1-0.5-0.1-0.5 0.4-1.2 0.3-2-0.2-0.6-1.1-0.8-1.2-1-0.5-0.8-0.7-1 0.3-1.5-0.1-1.7-0.2-1.6 0.8-2.5 0.1-0.1 0.7 0 0.8 0 0-0.3 0-1.4 0.3-1.7l1.5-0.7c-0.3-1-0.7-2.1-0.5-2.7 0.1-0.2 0.7-0.8 0.8-1 0.1-0.6-0.3-0.4-0.2-0.7-0.3 0.1-1 0.3-1 0.3-0.6 2.1-0.4 2.8-1.7 1-0.7 0.1-0.6 0.3-1 0.5 0 0 0-1.6 0-2 2-0.5 1.3-0.1 2.3-1.5 0.2 0.2 0.5-0.1 0.8 0 0.3 0.1 0.3 0.9 0.5 1 1.2 0.8 2.7 0.3 3.8 0-0.1-0.5 0.1-1 0-1.5-0.1-0.3-0.9-0.9-1-1.2-0.1-0.3-0.1-1.4 0.3-1.2v-0.5c-0.1-0.2-0.7-0.7-0.7-0.7-0.1-0.1 0.1-0.6 0-0.7 1.9-0.8 2.1-1 3-2.7l0.5-0.5c0.1-0.5-0.4-1-0.2-1.7 0.1-0.4 0.9-1 1-1.5 0.1-0.6-0.4-1.2-0.2-2 0.1-0.5 1.1-1.3 1.2-1.7 0.2-0.5-0.1-1.2 0-1.7-1.6-1-1.5-0.6-1.7-3 0.4-0.3 0.2-0.2 0.3-0.7h0.5c0 0.5 0 1.3 0 2 0 0 1.4 0 1-0.2 0.1-0.3 0.5-1.3 0.8-1.5 0 0 0-0.7 0-0.7-0.1-0.4-0.7-0.9-1-1.2 0.2-0.3 0.6-0.7 0.7-1 0.2-0.3 0.7-1 0.8-1.2 0.3-1.2-0.5-2.2-0.5-2.7 0-1 0.6-1.5 0.5-2.7l-0.5-0.7c-0.6-2.8-0.1-2.3-2.7-3-0.1 0.5-0.4 1.4-0.5 2-0.5 0.1-0.3-0.2-0.5 0.3-0.9 0-2-0.2-2.5-0.2 0.1-1.9 0-2.6-0.5-4.2-0.7-0.2-2-0.9-3-0.5-0.2 0.1-0.5 0.6-0.7 0.7 0 0.6 0.1 1.2 0 1.7h-0.5c-0.2-0.5 0-0.8-0.2-1.2-0.3-0.6-1.6-1.2-1.7-2-0.2-1.4 0.7-1.4 0.5-2.7-0.1-0.4-2.2-3.2-2.5-3.2-1.4-0.3-1.6 0.6-2.2 1-0.8 0.4-1.7 0.6-2.5 1 0.4 1.6 1.4 4.7-1.7 4-1.1-0.2-0.8-1-1.2-2-0.1-0.2-0.7-0.3-0.7-0.5-0.2-1.1 0.6-2.1 0-3.2-0.4-0.6-1.3-0.4-2-0.7zm-74.3 31.7c-0.1 0.2-0.6 0.1-0.7 0.3-0.4 0.4 0 1.3-0.2 1.7-0.2 0.4-1.6 1.1-2.5 0.7 0 0-0.5-1.3-1.2-1.5-0.7-0.2-1.7 0.2-2 0.2l-0.2 2-1.2 1.5 0.7 0.2c0.5 0.7 0.5 1 1 2-0.3-0.1-0.7 0.1-1 0-0.9-0.3-1.8-2.8-2.7-3.2-1.2-0.5-3.3-0.5-4.7-0.7-0.3 0.4-0.6 0.5-1 0.7 0 0 0 0.7 0 0.7 0.3 0.1 0.4 0.6 0 0.5-0.1 0-0.2-0.4-0.2-0.5-0.7 0-1.6 0-2.2 0-0.3 1.6-1 2.4-1.7 3.5-0.3-0.2-0.7 0-1-0.2-0.1-0.1-0.5-0.9-0.5-1 1.7-0.5-2.8 0.1-1 0.3-0.4 0.1-0.7 0-1 0.2l-1.5 1.7c-0.4 0.7-0.2 2-1 2.5-0.4 0.2-1.4 0.2-1.7 0.2-1.2 3.2-1.1 1.1-3 2-0.3 0.1-0.5 1-0.7 1.2-0.3 0.2-0.7 0.1-1 0.2l-0.2 0.5c-1.1 0.7-2.1 0.5-3.2 0.5-0.1 0.4-0.2 1.1-0.5 1.5-0.4 0.7-1.3 0.6-2 1-0.9 0.6-2.9 3.8-3.5 4-0.1 0-1.1-0.3-1.5-0.3-0.9 0.1-2.5 0.5-3.2 0.8 0 1.3 0.1 2.2 0.3 3.2-0.6-0.1 0.1 0.3-0.5 0.2l-0.5-0.5c-0.8-0.2-1.8 0.6-2 1-0.4 0.9-0.1 1.6 0 2.5 0.4 0 1.1-0.1 1.5 0-0.2 2.9 0.1 2.9-2.5 2.7-0.1 0.2-0.6 0.6-0.7 0.7 0.3 1 0.2 1.4 0.5 2.5-0.1 0-1.1 0.2-1.5 0.2 0 0 0.1-1.3-2.5 0.5 0.4 2.8-0.9 3.7-0.5 6.7-0.7 0.4-1.6 1.1-2.2 1.5 0.1 0.4-0.1 0.8 0 1.2 0.1 0.6 0.9 1.4 1 2.2 0.1 0.9 0 1.6-0.2 2.2 0 0-0.5 0.2-0.5 0.2-0.3 1.5 0.3 3.4 0.5 4.7 0.3 0.1 0.6 0 0.7 0.3 0.1 0.3-0.1 0.7 0 1-0.2 0.2-0.9 0.5-1 0.7-0.8 1.3 0 2.5-0.2 4 0 0-0.4 0.2-0.5 0.3v0.5c-0.1 0.4-0.3 1.2 0 2 0.1 0.2 0.6 0.4 0.7 0.5v0.5c2.6 0.2 2.6 0.2 4-1.5 0.2 0.1 0.7 0.3 0.8 0.3-0.1 0.4-0.5 0.8-0.5 1-0.1 0.4 0.3 1.5 0.3 1.5 0.1 0.1 0.7 0.4 0.7 0.5 0.2 0.6-0.1 1.4 0 2-2.3-1.1-3.8-0.8-2.7 2 0.1 0.4 0 0.6 0.3 0.8 0.5 0.3 1.1 0 1.7 0.3 0.2 0.1 0.6 1 0.7 1 1.6 0.3 2.3-1.3 2.7-2.2 0.3 0.1 0.7 0.5 1 0.5-0.9 1.7-0.5 1.5 0 3-0.1 0 0 0.7 0 0.8-0.1-0.4-0.3 0.7-0.2 0.8 0.3 1.5 2.4 1.3 3.7 1.3-0.1 0.1 0 0.6 0 0.7-0.3 0.7-1.9 1.4-2.5 1.8 0.1 0.4-0.2 0.8 0 1.3 0.1 0.3 1.5 1.4 1.7 1.5 1 0.3 2.9-0.4 3.5-0.7 0.2-0.1 0.6-0.9 1-1 0.8-0.1 1.1 0.3 1.7 0.5 0 0 0 0.7 0 0.7-3.1 0.4-3.9 1.1-2.2 3.5 1.3-0.3 1.7-0.2 3-0.5 0.1 0.8 0.3 2.4 1 2.7 0.5 0.2 1.2-0.1 1.7 0 2.7 0.4 2.7 1.5 4.5-1 1.3 0.1 2.1 0.4 3 0l0.5-0.5c0.8-0.1 1.7 0.5 2.2 0.5 0.7 0.1 1-0.2 1.5-0.2 0.2-0.6 0.3-1.2 0.5-2-0.4-0.3-0.8-0.5-1.2-0.7v-0.5c0.8-0.4 1.8-1 2.5-1.2 0.9-0.3 2.2-0.4 3 0l0.5 0.5c1.3 0.2 1.9-0.6 2.7-0.7 0.6-0.1 1.5 0.2 2 0 0.8-0.3 0.7-1.9 1.2-2.5 0.6-0.6 1.8-1 2.5-1.5-0.2-0.6 0.7 0 0.7 0 0.4 2.3 0 1.9 2.2 2.3 0.4-0.7 1-2.2 2-2.2 0.4 0 0.1 0.4 0.7 0.3 0.1 0.4-0.1 0.9 0 1.3 0 0.1 0.6 0.5 0.7 0.8 0.3-0.1 0.7 0.1 1 0 0.8-0.2 1.2-2 1.5-2.7 2.8-0.1 2.2 0.1 3.2-1.7 1.1 0.2 1.7 0.1 2.7 0 0.1-0.3 0.5-0.4 0.5-0.5 0.2-0.5-0.2-1.2 0-1.7 0.1-0.4 1.2-0.9 1.5-1.2 0.3-0.4 0.4-1.2 0.7-1.5 0.7-0.7 1.9-0.7 2.2-1.7 0.2-0.5-0.1-1.2 0-1.7 0-0.3 0.7-1.2 0.7-1.5 0.2-1.9-0.9-2.1-2-2.7-0.3 0.4-0.7 0.8-1 1.2 0.6 0.1-0.7 0.5-0.7 0.5 0.2-1.3-0.2-1.3 1.2-2.2 0.6-0.4 1-0.3 1.5-0.7 0.2-0.1 0.3-0.7 0.5-0.7 0.8-0.4 1.9 0 2.7-0.5 0.4-0.2 0.2-1 0.5-1.2-0.4-0.7-0.1-0.8-0.7-1.2-0.4-0.2-0.8-0.3-1.2-0.5 0.3-0.2 0.4-0.9 0.7-1 0.7-0.3 1.4 0.1 2-0.2 0.5-0.3 0.2-0.8 0.5-1.2 0.2-0.3 1.1-0.5 1.2-0.7 0.2-0.4 1.1-3 1-3.7-0.1-0.4-0.9-0.7-1-1-0.3-0.6-0.1-1-0.3-1.7 0.3 0 0.4-0.5 0.5-0.5 0.5-0.1 0.7 0.4 1 0.5 1.5 0.3 1.8-0.5 2.5-1-0.1-1.1-0.3-2.4-0.2-3.2-1.2-0.6-1.7-0.2-1.7-2-0.1-1.7 0.9-1.6 1-2.2 0.1-0.5-0.2-1.4-0.2-1.5-0.2-2.2 0.6-2.4 0-4.5 0.3-0.1 0.9 0 1.2 0 0.7-1.6 0.7-0.9 0.3-2.7-0.3-0.1-0.8-0.1-1-0.2-0.6-0.5-1.1-1.4-1.5-2 1.1-0.9 1.8-1.7 3-2.5-0.1-0.4 0.1-0.8 0-1.2 0-0.1-0.7-0.7-0.7-1-0.2-1.1-0.1-1.8-0.2-2.7 0.3 0 1.4 0.2 2 0.2 0 0 0.3-1.2 0.3-1.5 0-0.1-1.2-3.2-1.2-3.2-0.2-0.2-1-0.3-1.2-0.5 0.4-1.2 1.2-3.2-0.2-3.7-0.4-0.2-0.8 0.1-1.2 0-0.2 0.5-0.3 0.9-0.5 1.2-1.2 2.2-0.2 0.1-1.2 0.5 0-0.5 0.1-1.1 0-1.5 0.1 0 0.5-0.2 0.5-0.2 0.1-0.4 0.2-0.3 0.5-0.5-0.2-0.5-0.4-1.1-0.5-1.5-0.4 0.2-2 0.9-2.5 0.7-0.1 0-0.6-0.7-0.7-0.7-0.3-0.1-0.7 0.1-1 0-0.2 0.2-0.8 1.2-1 1.2-0.3 0.1-0.7-0.1-1 0 0.9 0-0.5-3.2-0.5-3.2 1.3-0.5 1.3-0.6 2.2-1.2-0.1-0.4 0-1.1 0-1.5-1.1-0.2-1.3-0.4-2.7-0.2-0.3-0.7-0.2-0.6-0.7-1-0.8 0.5-0.9 0.8-2 1.2-0.3 2.5-0.1 2.5 2 2.5-0.5 1-0.4 1.4-0.7 2.7-0.6-0.8-1.5-1.8-2.5-2.2h-0.2c-0.4-0.9-0.1-2.1-0.2-3 0.5-0.1 0.5 0 0.7-0.2 0.4-0.3 1.2-0.6 1.5-1 0.1-0.2 0.2-1 0-0.7-0.1 0-0.4-0.9-0.5-1-1.2-0.6-3 0.2-4 0-0.7-0.2-1.1-1.8-1.7-2h-0.5zm154.3 3.2l-0.5 0.3c-0.3 0.4-0.1 0.7-0.2 1.2-1.1-0.3-1.6-0.2-2.7-0.5-1.5 3.3-1 2.3-4.7 2.5l-1.2 0.5c-0.2 0-0.4-0.2-0.2-0.2-0.3-0.2-0.9 0.1-1.2 0-0.3-0.1-0.4-1.7-1.7-1.2 0 0-0.6 1 0 0.8 0 0 0.2 1.2 0.3 1.5-1.1 0.8-1 0.5-1.7 1.7-0.7-0.2-1-0.2-1.5-0.5-0.9-0.6-0.4-1.2-0.2-1 0.1-0.6 0.7-0.5 0.5-1.5-0.1-0.2-0.9-0.5-1-0.7-0.2-0.3-0.1-0.6-0.2-1-0.1 0-0.9-0.2-1.2-0.2-0.1 1.2-0.2 2.5 0 4-0.6 0.1-2.2 0-3 0.2-0.4 0.1-1.1 1.2-1.5 1.5-0.3-0.1-0.9 0-1.2 0-0.1-0.4-0.2-0.8-0.2-1.5-0.7-0.2-1.7-0.8-3-0.5-0.2 0-0.7 0.7-0.7 0.7h-0.5c-1.8 1.8 1 2.2 2 2.7 0.3 0.2 0.7 0.8 1 1-0.4 0.3-0.7 0.5-1 0.8-1.1-0.8-2.3-1.7-4.2-1-0.4 0.1-0.8 0.9-1.2 1-0.5 0.1-1-0.1-1.5 0-0.3-1-0.8-3-2-3-0.4 0-0.7 0.4-1.2 0.5-0.1 0.3-0.5 0.4-0.5 0.5-0.2 0.7-0.2 1.8-0.2 2.2-1.8 0.5-3.1 1-5.2 1.2-0.4 1-0.6 1.6-1 2.5h-0.5v-0.5c-0.4-1.2-1.6-0.7-2.5-0.5-0.3 1.9-0.8 2.3-1.5 3.7-2.1-0.7-1.7-0.7-3.2 0 0 0.5 0.1 1 0 1.5l0.8 0.2c0 0 0 0.7 0 0.8-1.3-0.2-2 0-3 0-0.1 0.6-0.7 0.5-0.5 1.5 0 0.1 0.8 1 0.8 1-0.7 0.3-1.1 2-1.2 2.7-2.1 0.5-3 0.5-4.5 1.5 0.1 0.6-0.2 1.2 0 1.7 0.2 0.5 1.4 0.8 1.8 1.2 0.4 0.5 0.5 1.7 1 2 0.6 0.4 1.1-0.1 1.5 0 0.1 0 0.3 0.5 0.5 0.5 0 0-0.4 1.5-0.2 1.5-1.7-0.2-2.1-0.2-3.7 0.2 0.1-1.2 0.4-2.8-0.7-3.2-0.3-0.1-0.7 0.1-1 0-0.1 0.3-0.5 0.4-0.5 0.5-0.4 1.2 0.5 1.6 0.3 2.7-0.2 0.6-3.6 3.4-4.2 4.2 0.3 0.3 0.1 0.5 0.3 1 0.6 0.2 1.6 0.6 2.2 0.7-2.9 0.7-4.3 1.7-3 4.5-0.9 0.6-3 2.9-2.7 4.5 0.1 0.3 0.9 0.7 1 1 0.1 0.3-0.1 0.7 0 1-0.5 0.3-3.4 2.4-3.5 2.7-0.2 0.4 0.1 1 0 1.5 0.1 0 0.8 0.1 1 0.2s0.1 0.7 0.3 0.7c-0.4 0.7-1.6 1.6-1.7 2.2-0.3 1 0.5 2.9-0.5 3.2-0.6 0.2 0.8 1.5 0.8 1.5v0.3c0.2 0.1 0.7 0.9 0.8 1 0.3 0.4 0.4 0.5 0.8 0.7-0.5 0.8-1.8 2.1-1.2 3.7 0.1 0.2 0.6 0.5 0.8 0.8 0.7-0.1 1.2-0.2 1.8-0.2v2.5c0.1-0.5 0 2.6 0.3 3 0.2 0.3 1.2 0.3 1.5 0.5 0.2 0.1 0.3 0.9 0.5 1 0.6 0.4 1.7 0.6 2.2 0.8 0 0.7-0.2 1.9 0 2.5 0.3 0.7 1.5 0.7 2.3 1 0.3-0.4 0.7-0.6 1-1 0.2-0.3 0.3-0.7 0.5-1 0.2 0.6 0.7 2.4 1.2 2.8 0.9 0.7 1.8 0.4 3 0.3-0.1 0.2 0 0.6 0 0.7-0.1 0.3-1 1-1.2 1.3 0.2 0.3 0.4 0.9 0.5 1.3 0.8 0 1.5-0.1 2.5 0 0.4 0 1 0.7 2 0.5 0.2-0.1 0.8-0.9 1-1 0.3-0.1 0.7 0.1 1 0 1.4 2 0.5 2.1 3.5 2.7 0.8-1.2 1.6-3.7 4-3.2 0.1 0 0.7 0.9 1 1 0.9 0.2 1.4-0.5 2.5-0.2 0.2 0.1 0.5 0.9 0.8 1 0.4 0.2 0.8 0 1.2 0.2 0.3 0.1 0.3 0.9 0.5 1 0.4 0.3 3.5 1.5 4.5 1.3 0.4-0.1 0.7-1.1 1.3-1.2 1.3-0.3 2 0.6 3.2 0.3 0.9-0.2 1.4-1.9 1.8-2.7 3.4 0.5 2.3 0.1 4.2-1.2 0.4-0.3 0.9-0.2 1.3-0.5 0.2-0.2 0.5-0.9 0.8-1 1-0.3 2.2 0.3 3.2 0 0.4-0.1 0.9-0.8 1.3-1-0.1-0.4-0.3-1.1-0.2-1.2-0.6-0.3-1.2-0.7-1.7-1 0.8 0.1 2 0.3 2.5 0.3 0.9-0.1 3.1-1.8 3.3-2.7 0.1-0.8-1.1-1.8 0-2.2 0.6-0.2 1.6 0.1 2.2 0 0.6-0.1 1.7-0.8 2.2-1-0.1-0.3 0-0.9 0-1.2-1.7-0.8-2-0.9-3.7 0.3l-0.2 0.5c-0.9 0.2-0.7-0.5-1.2-0.5 0.1-0.4 0.3-1.2 0.3-1.2 2 0.2 2.9 0.2 4-1 1.9-2.1 0.8-2.7-1.5-3.5 0.1-0.3-0.1-0.5 0-0.7 0.1-0.3 0.9-0.7 1-1 0.1-0.3-0.1-0.7 0-1h0.5c0 0 0 0.9 0 1 0.3 0.2 0.6 0.2 0.7 0.5 1.3-0.4 3.6-1.3 3.7-2.7 0.2-2.1-2.4-2.1-3.7-2 0.6-1.4 0.8-2.2 0.5-4 0.6-0.2 0.9-0.1 1.5-0.2 0.1-0.3 0.5-0.4 0.5-0.5 0.5-1.3-0.1-1.3 0.8-2.2 0.3-0.4 0.9-0.7 1.2-1-0.1 0.2-0.5 0.9-0.5 1-0.1 0.8 0.5 1 0.3 1.7-0.1 0.2-1 0.8-1.2 1 0.1 0.3 0 0.9 0 1.2 1.2 0.2 1.1 1.1 2.5-0.2 0.4-0.5 0.3-0.8 0.5-1.5 0.2 0.1 0.7-0.1 1 0 0.2 0.1 0.4 1 0.5 1.2 1-0.5 2.3-0.6 2.7-1.5 0.1-0.2 0.8-3.5 0.8-3.7 0-0.4-0.7-0.8-0.5-1.7 0 0 1.1-2 1.3-2.2-0.9-0.2-1.1-0.6-2-0.7 0.1-0.1-0.1-0.7 0-0.7 0.4-0.2 0.9-0.2 1.3-0.2 0-0.3-0.2-1.5 0-2 0.1-0.2 0.8-0.6 1-0.7-0.6-1.2-0.7-2-1.2-3.2 0.5-0.3 1-0.2 1.5-0.5 0.2-0.1 0.5-0.9 0.8-1 0.8-0.3 1.5 0 2.2-0.2 0.5-0.2 0.8-0.8 1.5-0.7 1.5 0 1.9 1.6 2.3 2.7 0.2-0.1 0.8-0.5 1-0.5-0.1-1.3 0.1-1.9 0.3-3 0.1-0.3-0.2-0.6-0.2-0.5v-0.7c0.9-0.7 1.6-1.3 2.5-2-0.1-0.5 0.1-1 0-1.5l-0.5-0.5s-0.2-0.5-0.2-0.5c-0.8 0.1-1.7 0.5-2.5 0.3-0.1 0-0.5-0.7-0.7-0.7 0.6-0.9 0.7-1.3 1.5-2-0.3-1.3-1.2-5-1-6.2 0.2-1 1.7-1.7 2-2.5 0.7-2-0.6-6.5-1.7-7-1.2-0.5-2.6 0.3-3.7-0.2-0.4-0.2-0.3-0.9-0.5-1.2-0.5-0.7-1.6-0.5-2.2-1-0.8-0.6-1.6-3.7-2.5-4-0.3-0.1-0.5 0.2-0.7 0-0.4 2.5-0.4 2.4-2.7 3-0.2-0.3-0.2-0.9-0.5-1.2-0.2-0.3-1.2-0.5-1.2-0.7-0.3-0.9 0.5-1.4 0.3-2.5-0.1-0.4-1-0.8-1.2-1 0 0 0.2-0.5 0.3-0.5 0.6 0 1.4-0.2 2 0 0.5 0.2 0.9 1.3 1.5 1.5 3.2 0.8 2.5-1.5 1.2-2.5-0.8-0.7-1.6-0.9-2.5-1.5zm-92.2 66c-0.2 0-0.4 0.1-0.5 0-0.1 0.2-0.8 0.4-1 0.5 0 0.1 0 3.2 0 3.2-0.1 0.2-0.6 0.3-0.7 0.5-0.1 0.2-0.1 1.1-0.2 1.2-0.4 0.3-0.6 0.1-1.2 0.3 0.3 0.2-0.6 0.3-0.7 0.3-0.1 0-0.2-0.4-0.5-0.5 0.2-1.3 0.5-2.8-0.7-3.2-0.5-0.2-0.6 0.4-1.2 0.3-0.2 0-0.8-0.7-1-0.7-2-0.4-2.8 0.9-3.7 1.5-0.2-0.2-0.5 0.1-0.7 0-0.4-0.1-0.6-1.1-1-1.2-0.9-0.4-3.1-0.2-4 0.3-1.2 0.6-0.6 3.3-1.2 4.5-0.1 0.2-1.7 1.5-2 1.7-0.3-0.3-1.2-1.4-1.5-1.5-2.6-0.7-4.2 3.7-5.5-1-0.1 0-1-0.4-1.5-0.2l-0.2 0.5c-0.8 0.5-1.5 1.6-0.3 2.2 0.2 0.1-0.3 0.3-0.2 0.5-0.5 0.1-1.2 0.6-1.7 0.5-0.6-0.1-0.6-1.2-2-1-0.4 0.1-2.1 1.7-2.2 1.8-0.6 0.1-1.7-0.2-2.5-0.2l-0.2 0.8c-2 0.5 0.2-1 0.5-1.2-0.1-0.4-0.3-1.2-0.2-1.2-1-0.1-1.3-0.1-2.2-0.2-0.1 0.3-0.3 0.3-0.5 0.5 0.3 1 0.3 1.5 0.5 2.3-0.6 0.3-1.5 0.2-1.7 0.8-0.2 0.5-0.2 1.9-0.2 2.2-0.5-0.2-0.5 0.4-1 0.3-0.3-0.1-0.5-1.1-1-1.2-1.3-0.4-2.5-0.1-3.7-0.2-0.2 2.5-1.4 4.1-2.5 5.7-0.1-0.1-0.6 0-0.7 0-0.5-1.1-0.5-0.9-0.7-2.5-0.4-0.1-0.4 0.2-0.5-0.2-0.3 0.1-0.7-0.1-1 0-0.1 0-0.2 0.4-0.5 0.5 0 0 0 1.2 0.3 0.8-0.1 0.2-0.2 1-0.2 1-0.6 0.1-1.2-0.2-1.7 0-0.4 0.1-0.6 1.1-1 1.3-1.8 0.8-3.4-0.3-4.7-0.7-0.5 0.7-0.9 0.9-1.2 2 0-0.2 0.1-1.7 0-2 0-0.1-0.5-0.2-0.5-0.5-0.4 0.1-0.9-0.1-1.2 0-0.2 0.1-0.7 0.6-1 0.8-0.2-0.2-0.5-0.9-0.7-1-0.4-0.2-2.9-0.7-3.5-0.5 0 0-0.2 0.5-0.2 0.5-1.5 1.3-0.7 1-0.5 2.5l0.3 1c0 0 1.2 0 0.7-0.2 0.3 0 0.7 0 1 0 0 0.1 0 1 0 1-0.6-0.1-0.4 0.4-1 0.3-0.2 0-0.8-1-1-1-0.8-0.2-3.4 0.7-4 1-0.2 0.1-0.1 0.6-0.2 0.8-0.3 0.3-0.9 0.3-1.2 0.5-0.2 0.1-0.3 0.7-0.5 0.7-0.1 0.1-0.6-0.1-0.7 0-0.2-0.5-0.4 0-0.5-0.2-0.1-0.2 0-0.8 0-1-0.4-0.1-0.1-0.1-0.2-0.5-0.4 0-1.1 0.1-1.5 0-0.6 0.8-1.2 1.8-2 2.2-1.2 0.6-4.1 0.8-4.7 1.8-0.3 0.4 0 0.6-0.2 1-0.4-0.2-0.2 0.3-0.2 0.5-0.6-0.2 0 0.8 0 0.8 0.7 0.2 0.8-0.3 1.5-0.2 0 0 0 0.7 0 0.8-0.6 0.2-0.6 0.1-1.2 0.3 0.4 0.3-0.7 0.2-0.7 0.3l-0.2-1.2c-0.2-0.1-1.2 0.1-1.2 0-0.2-0.4 0-1.5 0-2-2.7-0.6-1.8-0.4-3 1.7 0 0.1-0.7 0.7-0.7 0.8-0.2 0.9 0.4 1.7 0.3 2.3-0.1 0.3-0.7 0.5-0.7 0.7-0.3-0.1-0.9 0-1.2 0 0-0.7 0.1-1 0.3-1.7-0.2-0.2-0.4-0.1-0.5-0.5-0.5 0-1.7 0.3-1.7 0.3 0 0-0.7 0.2-0.7 0.3-0.3 0.3-0.2 1.4-0.5 1.7-0.5 0.5-1.5 0.3-2 0.8-0.2 0.1 0 0.6-0.2 0.8-0.4 0.1-0.9-0.1-1.2 0 0.3-0.1-0.5-0.5-0.5-0.5 0-0.1 0.5-0.7 0.5-0.7 0.9-0.3 1.8-0.1 2.2-0.7 0-0.1 0.5-0.7 0.5-0.7 0.1-0.4-0.2-1.5-0.2-1.5-2.4 0-3.7 0.3-5 2-0.2 0.3-0.2 0.9-0.5 1-0.8 0.3-1.6-0.1-2.2 0.3-0.3 0.2-1.3 3.2-1 4 0.1 0.2 0.6 0.5 0.7 0.8 0.5 0 1-0.1 1.5 0 0 0.1-0.3 0.5-0.2 0.5-1.9 0.3-2 0.8-2.7 2.2-2.5 0-2.9 0.2-3.5 2v0.5c-0.5 0.4-1.5 0.1-2 0.5-1.2 0.9-0.2 4.3-0.2 6.5 1.1 0.3 2.6 0.8 3 1.7 0.1 0.3-0.2 0.5 0 0.8-0.6 0.4-3.9 3.3-4 3.7-0.2 0.8 0.2 1.3 0.3 2 0.3 0 0.8 0.4 1.5 0.3 0.5-0.1 0.7-0.8 1-1 0 0 1.1 0.4 0.8 0.5 0.2 0.1 0.7 0.3 0.7 0.5 0.3 0.6 0.1 1 0.2 1.7-0.3 0.1-0.4 0.5-0.5 0.8-0.3-0.1-0.6-0.7-0.7-0.7-0.5-0.2-1.2 0.1-1.7 0-0.3 0.8-1.1 2.3-1 3.2 0 0.2 0.7 0.6 0.7 0.8 0.4 0.8-0.1 0.9 0 1.7-0.3-0.2-0.2 0.4-0.7 0.3-0.1 0-0.3-0.4-0.5-0.5 1-0.4-1.4-0.4-0.7-0.2l-0.2 1c1 0.6 2.8 1.1 3.5 2 0.4 0.5 0.3 1.3 0.7 1.7 0.8 0.7 1.7 0.3 2 1.5 0.3 1.4-0.7 1.8-0.5 3 0.1 0.6 1.2 1 1.5 1.5 0.2 0.4 0.5 1.8 0.5 2 0.1 1.1-0.3 3.9 0.3 5.2h0.3c0.7 0.4 1.3 1.8 2 2h0.5c0.1 0.1 0.1 0.7 0.3 0.8 0.6 0.3 1.2-0.1 1.7 0.3 0.5 0.3 2.5 3.1 1.5 4 1.2 1 3.7 1.6 3.5 4 0 0-0.7 1-0.7 1.3 0.3-0.2 0.2 0.4 0.7 0.3 0.3-0.1 0.3-0.7 0.5-1 0.2 0 0.8 0.1 1 0 0.5 0.5 2.5 2 0.7 2.5-0.2-0.2-0.5-0.9-0.7-1-0.3-0.1-0.7 0.1-1 0-0.1 0.2-0.6 0.6-0.7 0.7 0 0 0 0.9 0.2 0.5 0.2 0.6 0.1 0.4 0.3 1 0.5-0.2 0.2 1.7 0.2 1.7 1.5-0.5 2-0.6 3.7-0.5 0-0.1 0.2-0.5 0.2-0.5 0.2-0.1 1.2 0.2 1 0.3 0.4 0.6 0.8 1.2 1.2 1.7-1.1 0.3-2.5 0.4-2.7 1.5 0 0.1 0.1 0.6 0 0.8-0.2 0.3-0.9 0.5-1 0.7-0.1 0.4 0.1 0.9 0 1.3 0.5-0.2 0.8 0 1.2-0.2 0.5-0.3 0.8-1.2 1.2-1.5 0.8-0.7 1.7-1 2.5-1.7 0.6 0.8 1.3 2 2 2.7 0.3 0.3 1.3 0.6 1.5 1 0.3 0.7-0.3 0.9-0.2 1.5l0.5 0.8c0.4 1.8 0.1 1.4 0.7 2.8 0.3-0.1 0.7 0.1 1 0 0.7-0.2 1.4-1.3 2-1.7 1.9 1.7 3.5 3.1 6.5 1.5-0.2 1.5-0.3 2.9 1 3.5 0.4 0.2 0.8-0.1 1 0.3 0.2 0.2 0.6 2 0.7 2.2 2.8-0.4 3.6-0.1 5.5 1 0.4-0.2 1.4-1.4 2-1.2 0 0-0.2 1.2-0.2 1.5 0.2 0.1 1.4 0.8 1.5 1 0.2 0.4-0.1 1.1 0 1.5 0.1 0.4 1.2 1.2 1.2 1.5 0.1 0.6-0.4 0.9-0.5 1.5 0.7-0.1 1.7-0.6 2.5-0.5 0.7 0.1 1.2 1.2 1.7 1.5 0.4 0.3 0.8 0 1.2 0.3 0.7 0.4 1.9 3 2.2 4 0.9-0.3 2.7-0.7 3.7-0.7 0.3 0 0.8 0.5 1.5 0.3v-0.2c0.4-0.2 0.4-0.8 0.7-1 0.4-0.3 0.8 0 1.2-0.2 0.7 2.5-0.2 1.6 2.2 2.2 0.1-0.1 0.4-0.7 0.5-0.7 0.3-0.1 0.5 0.1 0.7 0 0.2 0.2 0.5 0.9 0.7 1 0.7 0.4 2.7 0.4 3.5 0.5 0.1 0.6-0.2 1.2 0 1.7 0.4 1.1 5 1.9 6.5 2.3 0.1 0.4-0.1 0.8 0 1.2 0 0 2.2 2.2 2.2 2.3 2.2 1 2.3-0.7 3.2-1 2-0.6 2.7 0.6 3.5 1 0.4 0.2 0.8 0 1.2 0.3 0.1-0.4 0.4-0.3 0.7-0.5-0.2-1.4-0.1-2.2-0.2-3 0.4 0.1 0.6-0.1 1-0.2 0.2 0.4 0.8 1.8 1.2 2 1.4 0.5 3.3-0.5 4.2-0.5 1.7-0.1 1.9 0.6 2.7 1.3 2.3-1 2.5-0.1 5.2-0.5 0.3 0 1.4-0.7 1.5-0.7 0.9-0.1 1.7 0.3 2.3 0.3 0.2 0 0.7-0.6 1-0.7-0.1-0.4 0.1-0.8 0-1.2 0-0.1-2.5-3.6 0.8-2.7 0.1 0 0.6 0.7 0.8 0.8 0.5 0.1 0.8-0.3 1-0.2-0.3-0.2 0.2-1.1 0.3-1.2-0.3-0.1-0.1-0.4-0.2-0.5-0.4-0.2-0.8-0.1-1.2-0.2 0-0.5-0.3-0.7-0.2-1 0.1-0.9 1.6-1.3 2-2 0.3-0.5 0.2-1.2 0.5-1.7 0.4-0.6 3.3-1.9 4.5-1.7 0.1 0 0.7 0.7 0.8 0.7 0.3 0.1 0.8-0.1 1 0 0.3 0.2 0.6 1.1 1 1.3 0.2 0.1 0.6-0.1 0.8 0 0.2-2.8 0.1-2.2 2.2-2.2 0 0.7 0.2 1.6 0 2.2 0 0-0.7 0.5-0.7 0.5 0.5 1.7-0.1 1.2 1 2.2-0.3 0.1-0.4 0.5-0.5 0.5-0.4 0.1-0.8-0.1-1.2 0 0.4 0.2-0.9 0.2-1 0.3-0.1-0.2-0.1-0.5-0.2-0.7-1.2-1.8-0.9-1.7-4-1.7-0.2 0.5-0.2 1.3-0.5 1.7-0.3 0.4-1.1 0.4-1.5 0.8-0.4 0.3-0.2 0.2-0.5 0.8 0 0 0 0.7 0 0.8 0.2 0 0.9-0.1 1 0 0 0.1 0.2 0.9 0.3 1.2-1.2 0 0.1 2 0.3 2.3-0.8 0.6-1.5 1.3-2.2 2 0.1 0.4 0.3 0.5 0.3 1 2.6 1.5 3.1 1.3 4.5-1.2 0.2 0.2 0.8 0.3 1 0.5 0.2 0.3 0.1 0.7 0.3 1 1 1.6 2.2 0.8 3.5 0.3-0.2-1.9 0-2.2 0.3-3.5 0.2 0.1 0.7-0.1 1 0 0.4 0.2 0.7 1.4 1.2 1.5 1.9 0.5 2.2-0.9 3-1.5 0.4-0.3 0.8 0 1.2-0.2 0.4-0.2 0.9-1 1.3-1.2 0.2 0.1 0.5 0 0.8 0 0.4 0.1 0.7 0.9 1 1 0.9 0.4 1.3 0.1 2.3 0 0-0.2 0.5-0.7 0.5-0.7 0.3-1.3-0.8-2 0.3-2.7 0.3 0.1 0.7-0.1 1 0 0.4 0.1 0.5 1 0.8 1.2 1.3 1 2.4 0 3.5-0.5 0-0.7 0-1.5 0-2.2-0.6-0.2-2-0.7-2.2-1.2-0.1-0.3 0.1-0.7 0-1 0.7 0.2 0.6-0.4 1.3 0 0.8 0.5 0.3 1.6 2 1.5 1-0.1 1.9-1.2 2.2-2 0 0 0.6-0.3 0.3-0.5-0.4-0.2-0.9-1-0.7-1.7 0-0.1 0.7-0.4 0.7-0.5 0.6-0.8 0.5-1.4 0.8-2.5-0.2-0.2-0.4-0.1-0.5-0.5-0.1 0-0.7 0.1-0.7 0v-0.7c3.4 1.6 3.8 0.2 7-0.7 0.1-0.4 0-1.4 0.3-2 0.1-0.3 0.9-0.6 1-1 0.1-0.5-0.1-1 0-1.5-0.2-0.2-0.4-0.2-0.5-0.5-0.3 0-0.9 0.1-1.2 0-0.2-0.1-0.4-0.9-0.5-1 0.2 0 0.6-0.4 0.8-0.5 1.4 0.9 0.8 0.8 2.7 0.8-0.1-0.6 0.3-0.4 0.3-1 0-0.3-0.7-0.9-0.7-1-0.2-0.9 0.4-1.1 0.5-1.5 0.1-0.5-0.1-1 0-1.5 0.1-0.5 0.9-1 1.3-1.5-0.1-0.2 0-0.6 0-0.7-0.1-0.6-1.3-1-1.7-1.2 0.6-2.1 1.4-2.8 1.8-5.2-0.2 0-0.7-0.5-0.7-0.5-1.5-0.3-2.2 1.2-3 1.8-0.1 0.1-0.4 0.6-0.5 0.7-0.1-0.5-0.3-1.7-0.5-2.5-0.1-0.2-0.7-0.8-0.7-1-0.2-1.5 1.2-1.7 1.5-2.7v-0.2c0 0.2-0.3-0.7-0.2-1 0.1-0.4 2-3.8 1-4.5-1.5-0.9-2.4 0.5-3.2 0.7-0.1 0-0.6-0.1-0.7 0-0.1-0.3-0.5-0.4-0.5-0.5-0.3-0.8 0-2.2 0-3 0.1 0.5 0.3-0.2 0.3-0.2-0.9-1.9-0.7-1.4-2.7-1.2-0.2 0.9-0.7 4.1-1.5 4.5-0.6 0.3-1.4 0-2 0.3-0.1 0-0.7 0.7-0.7 0.7-0.5 0.1-0.7-0.3-1-0.2 0.3 0-0.2-0.7-0.2-0.7-0.1-0.9 0.9-2.5 1-3 0.1-1-0.4-1.8-0.5-2.5l0.3-0.7c0.5 0.1 1-0.1 1.5 0 1.2 0.4 0.8 2.6 2.7 1.8 2-0.9 0.8-3 0.3-4.2-1.3 0.1-1.9 0.1-3 0.3 0.5-1.7 0.3-1.5 0-3-0.2 0-0.8-0.3-1.2-0.5 0 0-1.7 1.6-1.2 1.7 1.1 0.3 0.5 3.2 0 4-0.4 0.6-1.6 1-2.2 1.3 0.2-3.2-0.1-2.5 2-4.5-0.3-0.9-0.2-1.1-0.5-2 0.1-0.1 0.7-0.3 0.8-0.5 0.2-0.5-0.2-0.7 0.3-1 0 0-0.5-1.3-0.5-1.5 0.3 0.2 0.7 0.1 1 0.3 0.2 0.1 0.3 0.7 0.5 0.8 0.3 0.1 1.2-0.2 1-0.2 0.1-0.1 0.7-0.4 0.8-0.5 0.3-0.7-0.3-2 0-2.7 0.2-0.5 1.5-0.3 1.3-2-0.1-0.6-1.1-1.1-1.5-1.5 0.8-1.6 0.8-1 0.3-2.5-0.4-1.1-0.7-2.3-1.7-2.7-2.7-1.1-3.1 0.5-2.7 2.8-0.2 0.1-1.2 0.6-1.2 0.7v0.5h-0.5c-0.2-0.7 0-1.1-0.5-1.5l-0.2-0.2c0.1-0.1-0.1-0.6 0-0.7h0.3c1-0.5 1.4-1.4 2-2.2-2.4-0.4-2.4-1.5-3.2-4.2 0.6-0.3 1.9-1.2 2.5-1.2 1.3-0.1 1 0.7 1.5 1 0.5 0.3 0.8 0 1.3 0.3 0.3-0.2 0.7-0.6 1-0.7-0.2-0.7 0.1-1.2-0.2-1.7 0 0-1-0.5-1-0.5-0.2-0.9 0.7-0.9 0.5-2-0.1-0.6-1-0.9-1.2-1.2-0.2-0.3-0.1-0.7-0.2-1-0.4-0.7-1.5-1.1-2.2-1.5 0.1-0.5-0.1-1 0-1.5 0.1-0.3 1-0.9 1-1.2 0.1-1.4-1.3-2.1-2.2-2.5-0.5-0.2 0.7-0.5 1-0.5l0.5 0.5c2.2 0.6 1.8-1.5 1.7-2.7-0.3-0.1-0.4-0.4-0.5-0.5-1.2-0.4-2.8 1-3.5 1.3l-0.5-0.7c0.1-0.1 0.7-0.4 0.8-0.5 0.1-0.4 0-1 0-1.5 0.4 0.2 0.1-0.4 0.8-0.2 0.1 0 0.4 0.7 0.5 0.7 1.3 0.8 1.8 0.2 2.7-0.5-1-2.5-1-3.5-4-2 0 0 0-0.7 0-0.7 1-0.4 1.5-0.4 2-1.2 0.1-0.1 0.4-0.2 0.5-0.2-0.1-0.3 0.1-0.7 0-1-0.2-0.5-1.1-1-1.2-1.5-0.3-1.4 0.2-2.5 0-4 0.2 0.1 0.5-0.4 1 0 0.5 0.5 0.1 2.5 0 3.5 0.5-0.1 0.9 0.3 1.8 0 0.1 0 0.2-0.5 0.3-0.5 0-0.2 0.7-0.6 0.5-1.5 0-0.1-0.5-0.6-0.5-0.7 0.1-0.4 1.1-0.6 1-2-0.1-0.8-0.9-0.6-0.5-1.7 0-0.1 0.7-0.6 0.8-0.7 0 0-0.1-0.6-0.2-0.2-0.2-0.1-0.3-0.9-0.5-1-0.5-0.2-1.4 0-2 0v-0.5h0.3c0-0.2 0.1-1.1 0.3-1.2 1.1-0.9 2.2 0.1 3.5-0.2 0.2 0 0.5-0.6 0.8-0.7 0-0.2-0.1-0.8 0-1-0.8-1-1.5-1.6-2.7-2.2 0-0.3 0.2-1.2 0-1.5-0.3-0.5-0.8-0.2-1.2-0.5-0.6-0.4-0.8-1.8-1-2.5-0.3-0.1-0.4-0.5-0.5-0.5-3.1-1.1-1.9 2.5-1.5 3.7-0.4 0.1-0.5 0-0.7 0.3-1 0.8-0.8 0.7-2.2 0.2 0.2-0.3-0.5-0.3-0.2-0.5 1.4-0.8 0.8-2.4 0.8-4.5l0.8-0.2c1.3-2.2 0.2-2.1-2-2 0.2 2.5 0.5 1.8-1.5 2.3-1.3-1.9-1.8-2.2-4.2-2.2-0.1 0.2-0.3 1-0.5 1.3 0.1 0.2 0.7 0.7 0.8 0.8-0.1 0.1 0 1.1 0 1.3-0.7 0.1-1 0-1.5 0.2-0.4-1.4-0.6-3.6-1.2-4.7 0.7-0.6 1.2-1 1.8-1.7-0.2-0.3-0.2-0.9-0.2-1.2-0.2 0-1.3-0.2-1 0-0.8 0.4-0.8 0.1-1.2 0.7-0.1 0.2-0.5 1.3-0.5 1.5-0.3-0.1-1-0.3-1-0.2-0.1-0.2-0.3-0.6-0.5-0.7-0.3 0.2-0.4-0.4-0.5-0.5 1.9-1 1.9-0.7 1.5-2.7-0.3 0-0.4-0.4-0.5-0.5-0.3-0.1-1.2 0.2-1 0.3h-0.5c-0.4 0.1-0.3 1.1-0.7 1.3-0.3 0.1-0.7-0.1-1 0-0.3-1.2-0.8-2.9-1.7-3.2-0.1 0-0.1 0-0.2 0zm104.2 12c-0.2 0.3-0.9 0.6-1 1 0 0 0.2 0.7 0.3 1-0.3 0.1-0.4 0.5-0.5 0.5-0.6 0.2-1.5 0.2-2 0.3-0.2 2.3-0.8 3.4-0.7 5.2-1-1.9-1.7-1.7-3.2-0.5-0.2-0.3-0.4-1.1-0.7-1.2-0.8-0.4-4.4-0.2-5.7-0.5-0.1 0.3-0.5 0.4-0.5 0.5-0.3 0.9 0 2.5 0 3.5 0 0-0.5 0.3-0.5 0.3-0.2-0.4-0.5-0.5-0.7-0.7 0.6-2.1 0.1-5-2.5-3.2-0.3 0.2-0.2 1-0.5 1.3-0.2 0.2-1 0.4-1.2 0.5 0.2 0.7-0.1 1.2 0.3 1.8 0.5 0.9 2.6 0.8 3 1.8 0.2 0.4-0.2 0.8 0 1.2-0.1 0-0.7 0-0.7 0-0.8-0.7-1.1-1.2-1.5-2.2-0.8-0.1-2.2 0.1-3.2-0.2-0.1 0-0.6-0.7-0.7-0.7-0.9-0.1-1.3 0.6-2.2 0.3-0.1 0-0.2-0.4-0.5-0.5 1.3-0.7 1.2-0.6 1-2.5l-0.7-0.2c-0.2 0.3-0.6 0.2-0.7 0.5-0.1 0.2-0.1 1.1-0.2 1.2-0.6 0.5-1.5-0.1-2 0.8-0.2 0.4-0.6 2.4-0.7 2.7-4.8-1.4-3 2.2-6 2.3 0 0-0.6-0.2-0.7-0.2v-0.5c0.3-0.1 0.9 0 1.3 0-0.1-0.1 0.2-0.4 0.3-0.5-0.2-0.2-0.4-0.1-0.5-0.5-1-0.2-2.5-0.6-3.2-0.5-0.5 0.1-1.1 1-1.5 1.3-0.9 0.5-1.9 0.5-3 1-0.2 0.1-0.5 0.7-0.7 0.8-0.8 0.2-1-0.5-1.7-0.2-0.1 0-0.4 0.7-0.5 0.8-0.9 1.1-0.7 1.7 0 3-0.6 0.1-1.1 0.3-2 0.5 0.1-0.3-0.1-0.7 0-1 0-0.1 0.7-0.4 0.8-0.5-0.2-0.4 0.2-0.8 0-1.2-0.1-0.1-0.6-0.5-0.7-0.7-0.5 0.2-1.1 0.2-1.5 0.3-0.1 1-0.4 2.7-0.5 3.7-0.8 0-0.7-0.1-1.5 0 0.1 0.4-0.1 0.9 0 1.2 0.1 0.4 1.4 0.8 1.8 1 0 0-0.1 1.4-0.2 1-0.2 0.3 0.1 0.5 0 0.7-0.1 0.1-0.6 0.5-0.7 0.8h-0.5c-0.4-0.8-0.5-1.4-1-2-1.1-1.5-0.9-0.6-2.7-1.2-0.1 0-0.4-0.7-0.5-0.7-0.4-0.1-0.8 0.2-1.2 0-0.1 0.3-0.7 0.6-0.7 0.8-0.2 0.7 0.1 1.5-0.2 2-0.5 0.9-1.7 0.5-2.5 1-1 0.6-1.5 2.8-1.7 4-2-0.9-0.8-0.9-2.7 0 0.1 0.4-0.1 0.6-0.2 1 1 0.7 1.1 0.8 2.2 1-0.1 0 0 0.9-0.2 1-0.3 0.1-0.9 0-1.2 0-0.1 0.3-0.7 0.7-0.7 1-0.2 1 0.4 2 0.5 2.7 0 0.5-0.3 0.7-0.2 1h-0.5c-0.5-0.2-1-1.6-1.5-1.7-0.8-0.2-0.9 0.3-1.5 0.3-0.6 2.2-0.8 2 0.7 3.2-0.5 0.5 0.1 3.3 0.3 4.2-0.4-0.4-0.9-0.6-1.2-1 0.5 0-1.4-0.2-0.7 0-0.3 0.2-0.7 0-1 0.3v0.5c-0.8 2.2 0.7 2.5 1.5 4.5-0.1 0.1 0 0.6 0 0.7-0.1 0.3-1.3 0.7-1.5 1-0.1 0.2 0 0.7 0 1 0 0.2-0.7 1.2-0.7 1.3-0.1 0.5 0.1 1 0 1.5 0.5 0.4 1.4 1 1.8 1.5 0.3 0.4 0.2 0.9 0.5 1.2 0.4 0.4 0.9 0.3 1.2 0.8 0.7 1 1.4 3.6 1.8 5 0.4 0.1 0.9 0 1.3 0.3-0.1 0.1-0.2 0.6-0.2 0.8-0.2 0.3-1.1 0.4-1.2 0.7-0.4 0.8 0.1 2.7 0 4 0.5 0.2 0.1 0 0.3 0.5 1 0 1.6 0.2 2.7 0-0.1 0.3 0.1 0.7 0 1-0.2 0.8-1.7 1.4-0.7 2.7 0.1 0.2 0.9 0.3 1 0.5 0.4 1.2-0.8 1.9 0.3 2.5 0.3 0.2 1.4 0.4 1.7 0.5-0.1 0.9-0.5 2.1 0 3 0.1 0.2 0.7 0.3 0.8 0.5 0.2 0.6-0.2 1.4 0 2 0.1 0.1 0.4 0.1 0.5 0.3 0.7 0.6 1.3 0.5 2 1 0.2 0.2 0.1 0.5 0.3 0.7 1 1.6 2.3 0.7 3.5 0-0.1 1.7-0.2 2.4-0.5 4 0.2 0.1 1.5 0.4 1.2 0.3 0.7-0.4 1.5-0.3 1.8-1.2 0.1-0.3-0.1-0.8 0-1 0.1-0.2 0.9-0.1 1-0.2 0.1 0.2-0.1 0.5 0 0.8 0 0.2 0.7 0.7 0.7 0.8 0.1 0.4-0.3 1.4-0.2 1.5-0.2 0.1-0.5 0.4-0.5 0.5 0 0 0 0.7 0 0.8 1.2 0.5 1.6 0.7 3.5 0.5 0 0.1-0.1 1.2 0 1.2-0.2 0.3-0.7 0.5-1 0.8 0.1 0.2 0 0.8 0 1 0.4 0.1 0.3 0.4 0.5 0.8 1.4-0.3 1.5-0.2 2.2-0.7 0.2-0.2 1.1-0.5 1.3-0.7 0.4-0.6 0.1-1.4 0.8-1.7 0.3-0.2 0.9 0.1 1.3 0l0.5-0.5c1.3-0.3 0.8 0.1 1.8 0.3-0.1 0.4 0 1.1 0 1.5-0.7 0.3-1.4 0.5-2 0.8 0 0.4 0.2 1.7 0.2 1.7 0.4 0.1 0.8 0.4 1.5 0.3 0.3-0.1 0.9-0.8 1.3-1 1.6-1 2.4-0.4 4.2-1 0.1 0 0.2-0.4 0.5-0.5-0.1-0.5 0.2-1.2 0-1.7h-0.2c-0.5 0-0.9-0.6-1.2-0.7 0-0.5 0.1-1 0-1.5 0.2-0.2 0.4-0.7 0.8-0.7h0.3c0.5 0.5 1.1 1.6 1.7 1.8 0.3 0.1 0.7-0.1 1 0-0.3 0.9-0.2 1.3-0.5 2.2 0.9 0.4 2.4 1.2 3.7 0.5 1.2-0.7 0.4-1.6 0.3-2.2-0.1-0.6 0.3-0.9 0.3-1.2 1.7-0.1 3.1-0.4 4.7-1 0.1 0 0.2-0.5 0.2-0.5h0.5c0.4-0.6 0-1.4 0.3-2.2 0.2-0.5 1-0.8 1.3-1.2 0.3-0.5 0-0.8 0.3-1.2 1.1 0 3.4 0.1 4.5-0.5 0.5-0.3 0.8-1.2 1.2-1.5 0.2-0.2 0.5 0.1 0.8 0 1.6-0.6 0.5-2.2 0-3 0.9-0.2 2.5-0.5 2.8-1.2 0.1-0.4-0.2-1.1 0-1.5h0.3c1-0.5 1.7-1.5 2.5-2.2 0.3 0.1 0.7-0.1 1 0 0.6 0.2 0.8 1.5 2.3 1 0.2-0.1 0.5-0.6 0.8-0.7-0.2-0.4 0-0.9-0.2-1.2-0.1-0.1-1.4-0.7-1.5-1-0.1-0.3 0.2-0.5 0-0.7 2.4-0.6 2.8-0.5 2.5-3.2 0.9-0.5 1.7-0.7 2.5-1.2 0.3-0.2 0.2-0.5 0.5-0.7-0.2-1.2-0.5-2.7 0.5-3.2 1.8-1 2.4 0.6 3.2 0.8 1 0.2 1.2-0.4 1.7-0.5-0.1-0.6 0.3-0.4 0.3-1 0-0.2-0.5-0.8-0.5-1.2 0-0.1 0.7-0.7 0.8-0.7 0.1-0.3-0.1-0.5 0-0.7-0.4-0.2-1.1-0.5-1.5-0.7 0.7-1.6 0.6-2.1 0-3.7 0.8 0.5 1.6 0.9 2.5 1.3-0.1 0 1.3 0 1.5 0 0.2-0.4 1-2.8 1.3-3 0.6-0.5 1.6-0.1 2.2-0.5 0.5-0.3 0.2-1.4 0-1.2 0.1-0.4-0.1-0.9 0-1.2 0-0.1 0.5-0.2 0.5-0.5 2 0.2 2.3 0 3.5-0.5 0.2-1.8 0.2-2.5-1-3.5-0.1-0.1-0.7-0.4-0.7-0.5-0.2-0.5 0.1-1.2 0-1.7 0.4-0.1 0.4 0.2 0.5-0.2 0.4 0.2 0.8-0.2 1.2 0 0.3 0.1 0.2 1.1 0.5 1.3 1.5 1 3.3 0.3 3.7-1 0.3-1-0.1-0.9-0.2-1.7h-0.5l0.2-2c-0.9 0.1-1 0-1.5 0-0.2-0.4 0.2-0.8 0-1.2-0.1-0.2-0.6-0.3-0.7-0.5-0.3-0.4 0-0.8-0.2-1.2 0.3-0.1 0.5-0.7 0.8-0.7 0.2 0 0.6 0.1 0.8 0 0.5-0.3 0.7-1.6 1.2-1.7 0.6-0.2 1.6 0 2.3 0 0.4-1.3 0.8-2.4 1.3-3.5-0.2-0.1-0.3-0.9-0.5-1-0.5-0.3-1.1-0.3-1.5-0.5-1.5-0.9 1.6-1.7 2.2-2.2 0.2-0.2 0-0.8 0.3-1-0.3-0.1-3.4-0.7-3.5-0.7-0.1-0.1-0.8-1.9-1-2.2 1.2-0.4 1.4-0.7 2.2-1.2-0.4-0.3-0.3-0.9-0.7-1.2-0.3-0.3-0.6-0.1-1-0.2 0 0-0.2-0.9-0.2-1.2 0.8-0.4 1.3-0.6 2-1-0.1-0.4 0.1-0.9 0-1.2-0.1-0.2-0.6-0.3-0.7-0.5-0.3-0.5-0.5-1.5-0.7-2-0.1 0.4-0.2-0.7-0.2-0.7 1.1-0.6 0.3-2.1-1-2l-0.5 0.5c-0.5 0.2-0.8 0.3-1.2 0.5 0 0 0 1.6 0 1.5 0.2 0.3 0.6 0.5 0.8 0.8 0.3 0.5 0.1 1 0.3 1.5-0.5-0.5-1-0.7-1.5-1.2-0.4 0.2-0.8-0.2-1.2 0-0.3 0.1-0.7 1.1-1 1.3-0.4 0.1-0.8-0.2-1.2 0l-0.2-0.5c-0.1 0.4-0.2-0.9-0.2-1 0.1 0 0.7-0.4 0.8-0.5 0.2-0.6-0.3-0.9-0.2-1.2h-0.5c-0.3 0.1-0.6 1.3-1 1.5-0.2 0.1-0.6 0-0.7 0-0.2 0-0.8 0.7-1 0.8-1.5 0.5-2.9 0.5-4.7 0.5-0.4 0.9-0.4 0.9-0.7 2.2 0 0-0.7 0-0.7 0-0.1-0.6-0.2-1.8-0.2-2.7 0.6-0.2 0.8-0.1 1.5-0.2-0.1-1.1-0.1-2.5-0.5-3.7 1.2 0.2 1.3 0.4 2.5 0l0.3-0.5c0.4-0.2 1.3 0 1.7 0 0-0.2 0.4-0.5 0.3-1-0.2-1-1.6-2-2.2-2.7-0.3 0.4 0 0.6-0.2 1-0.2 0.3-0.5 0-0.7 0.3-0.3 0.2-0.5 0.9-0.7 1.2 0-0.1-0.7-0.2-0.7-0.2-0.2-0.2-0.1-0.7-0.2-1-0.3-0.1-0.4-0.5-0.5-0.5-0.9-0.3-1.4 0.3-2 0.5l-0.2-0.2c0.1-1.5-0.1-1.7-0.2-2.7-0.2 0-0.8 0.1-1 0z" fill="#FFF" oldfill="#f56600"/></svg>